<svg xmlns="http://www.w3.org/2000/svg" viewBox="0 0 283.2 144.8"><title>CPI</title><g fill="#FFF"><path class="st0" d="M127 71.8c0-13.7 5.7-27.2 15.9-34.2s25.7-6.5 37.2 0.7l-3.5 6.5c-5-2.3-11.9-4.3-17.5-4 -13.2 0.7-19.7 17.2-19.7 31.1 0 13.2 7 28.9 20.9 29.1 7.8 0.2 13.5-2.7 20.2-5.8l3.2 6.3c-7.2 4.7-16.2 7.7-26.9 7.7C138.1 108.9 127 90.2 127 71.8z"/><path class="st0" d="M226.1 32.7c19.9-0.3 28.9 18.4 29.1 39.6 0 18.7-9.4 36.2-29.4 36.9 -8.2 0-15.2-2.5-22-6.7v43.3l-12-4.3 0.2-96c-0.2 0 9.4-12.5 34.1-12.9V32.7zM223.1 100.5c16-1 18-16.7 18-29.1 0-12-2-30.1-17.2-30.7 -10.4-0.7-18.7 4.2-20.4 5.8v47.6C207.6 96.7 215.6 101 223.1 100.5z"/><path class="st0" d="M267.3 8.9c0-4.3 3.5-7.9 8-7.9 4.3 0 7.8 3.5 7.8 8 0 4.3-3.5 7.9-8 7.9 -4.3 0-7.9-3.5-7.9-7.9V8.9H267.3zM269.3 36.6l12-4v75h-12V36.6z"/><path class="st0" d="M45.7 33.6C37.9 17.8 4.8 17.5 1.6 20 -2 22.8-0.3 58.1 14.4 64.7 24.7 69.3 36 68.5 36 68.5s-15.9-0.7-19.5-12.8c-1.8-6.1-2-11.1-1.8-14.6 0.5 1.8 1.6 3.7 3.2 5.3 3.7 3.7 8.8 4.7 11.4 2.1 2.6-2.6 1.6-7.6-2.1-11.4 -1.6-1.6-3.4-2.6-5.2-3.2 3.5-0.2 8.4 0 14.4 1.8 12.1 3.6 12.8 19.5 12.8 19.5S50.5 43.4 45.7 33.6z"/><path class="st0" d="M49.3 81.9c0 0-0.7 15.9-12.8 19.5 -6 1.8-11 2-14.4 1.8 1.8-0.5 3.6-1.6 5.2-3.2 3.7-3.7 4.7-8.8 2.1-11.4S21.8 87 18 90.7c-1.6 1.6-2.7 3.5-3.2 5.3 -0.2-3.5 0-8.5 1.8-14.6C20.1 69.3 36 68.6 36 68.6s-11.3-0.7-21.6 3.9C-0.3 79-2 114.4 1.6 117.2c3.2 2.5 36.3 2.2 44.1-13.6C50.5 93.7 49.3 81.9 49.3 81.9z"/><path class="st0" d="M97.2 20C94 17.5 60.8 17.8 53 33.6c-4.8 9.8-3.6 21.7-3.6 21.7s0.7-15.9 12.8-19.5c6-1.8 11-2 14.4-1.8 -1.8 0.5-3.6 1.6-5.2 3.2 -3.7 3.7-4.7 8.8-2.1 11.4s7.6 1.6 11.4-2.1c1.6-1.6 2.7-3.5 3.2-5.3 0.2 3.5 0 8.5-1.8 14.6 -3.6 12.1-19.5 12.8-19.5 12.8s11.3 0.7 21.6-3.9C99 58.1 100.8 22.8 97.2 20z"/><path class="st0" d="M84.4 72.5c-10.3-4.6-21.6-3.9-21.6-3.9s15.9 0.7 19.5 12.8c1.8 6.1 2 11.1 1.8 14.6 -0.5-1.8-1.6-3.7-3.2-5.3 -3.7-3.7-8.8-4.7-11.4-2.1s-1.6 7.6 2.1 11.4c1.6 1.6 3.4 2.6 5.2 3.2 -3.5 0.2-8.4 0-14.4-1.8 -12.1-3.6-12.8-19.5-12.8-19.5s-1.2 11.9 3.6 21.7c7.8 15.8 40.9 16.1 44.1 13.6C100.8 114.4 99 79 84.4 72.5z"/><path class="st0" d="M107.3 117.9c-2.5 0-4.5-2-4.5-4.5s2-4.5 4.5-4.5 4.5 2 4.5 4.5S109.8 117.9 107.3 117.9zM107.3 109.5c-2.2 0-3.9 1.8-3.9 3.9 0 2.2 1.8 3.9 3.9 3.9 2.2 0 3.9-1.8 3.9-3.9C111.3 111.3 109.5 109.5 107.3 109.5zM105.5 111.1h2c1 0 1.6 0.5 1.6 1.3 0 0.7-0.4 1.2-1.4 1.3 0.4 0.1 0.5 0.2 0.7 0.4 0.2 0.3 0.4 0.7 0.9 1.7h-0.7c-0.8-1.7-0.9-2-2.2-2h-0.3v2h-0.6V111.1zM106.1 113.3h0.8c1.1 0 1.5-0.2 1.5-0.9 0-0.6-0.3-0.8-1.4-0.8h-0.9V113.3z"/></g></svg>