<?xml version="1.0" encoding="utf-8"?>
<!-- Generator: Adobe Illustrator 21.1.0, SVG Export Plug-In . SVG Version: 6.00 Build 0)  -->
<svg width="283.111px" height="144.7px" version="1.0" id="Layer_1" xmlns="http://www.w3.org/2000/svg" xmlns:xlink="http://www.w3.org/1999/xlink" x="0px" y="0px"
	 viewBox="0 0 283.2 144.8" style="enable-background:new 0 0 283.2 144.8;" xml:space="preserve">
<style type="text/css">
	.st0{fill:#FFFFFF;}
</style>
<path class="st0" d="M127,70.8c0-13.7,5.7-27.2,15.9-34.2c10.2-7,25.7-6.5,37.2,0.7l-3.5,6.5c-5-2.3-11.9-4.3-17.5-4
	c-13.2,0.7-19.7,17.2-19.7,31.1c0,13.2,7,28.9,20.9,29.1c7.8,0.2,13.5-2.7,20.2-5.8l3.2,6.3c-7.2,4.7-16.2,7.7-26.9,7.7
	C138.1,107.9,127,89.2,127,70.8z M226.1,31.7l-0.2-0.2c-24.7,0.3-34.2,12.9-34.1,12.9l-0.2,96l12,4.3v-43.3c6.8,4.2,13.9,6.7,22,6.7
	c20-0.7,29.4-18.2,29.4-36.9C255,50.1,246,31.4,226.1,31.7z M223.1,99.5c-7.5,0.5-15.5-3.8-19.5-6.3V45.6c1.7-1.7,10-6.5,20.4-5.8
	c15.2,0.7,17.2,18.7,17.2,30.7C241.1,82.8,239.1,98.5,223.1,99.5z M267.3,7.9c0-4.3,3.5-7.9,8-7.9c4.3,0,7.8,3.5,7.8,8
	c0,4.3-3.5,7.9-8,7.9c-4.3,0-7.9-3.5-7.9-7.9V7.9z M269.3,35.6l12-4v75h-12V35.6z M84.4,71.5c-5.3-2.4-10.9-3.3-15.1-3.7
	c0-0.1,0-0.3,0-0.4c4.2-0.4,9.8-1.3,15.1-3.7C99,57.1,100.8,21.8,97.2,19C94,16.5,60.8,16.8,53,32.6c-2.4,4.9-3.3,10.3-3.6,14.5
	c0,0-0.1,0-0.1,0c-0.3-4.2-1.2-9.6-3.6-14.5C37.9,16.8,4.8,16.5,1.6,19C-2,21.8-0.3,57.1,14.4,63.7c5.2,2.3,10.7,3.3,14.8,3.7
	c0,0.2,0,0.3,0,0.5c-4.1,0.4-9.7,1.3-14.9,3.7C-0.3,78-2,113.4,1.6,116.2c3.2,2.5,36.3,2.2,44.1-13.6c2.6-5.2,3.4-11.1,3.6-15.4
	c0,0,0,0,0,0c0.2,4.3,1.1,10.1,3.6,15.4c7.8,15.8,40.9,16.1,44.1,13.6C100.8,113.4,99,78,84.4,71.5z M84,95
	c-0.5-1.8-1.6-3.7-3.2-5.3c-3.7-3.7-8.8-4.7-11.4-2.1c-2.6,2.6-1.6,7.6,2.1,11.4c1.6,1.6,3.4,2.6,5.2,3.2c-3.5,0.2-8.4,0-14.4-1.8
	C55.2,98.3,52,91.9,50.6,87c0.9-0.2,1.7-0.6,2.4-1.3c2-2,2-5.2,0-7.2c-2-2-5.2-2-7.2,0c-2,2-2,5.2,0,7.2c0.7,0.7,1.6,1.1,2.5,1.3
	c-1.4,4.9-4.6,11.2-11.7,13.3c-6,1.8-11,2-14.4,1.8c1.8-0.5,3.6-1.6,5.2-3.2c3.7-3.7,4.7-8.8,2.1-11.4c-2.6-2.6-7.6-1.6-11.4,2.1
	c-1.6,1.6-2.7,3.5-3.2,5.3c-0.2-3.5,0-8.5,1.8-14.6c2-7,8.2-10.2,13-11.6c0.2,0.7,0.6,1.3,1.2,1.9c2,2,5.2,2,7.2,0c2-2,2-5.2,0-7.2
	c-2-2-5.2-2-7.2,0c-0.8,0.8-1.2,1.7-1.4,2.7c-4.8-1.5-10.7-4.7-12.8-11.5c-1.8-6.1-2-11.1-1.8-14.6c0.5,1.8,1.6,3.7,3.2,5.3
	c3.7,3.7,8.8,4.7,11.4,2.1c2.6-2.6,1.6-7.6-2.1-11.4c-1.6-1.6-3.4-2.6-5.2-3.2c3.5-0.2,8.4,0,14.4,1.8c6.7,2,9.9,7.8,11.5,12.5
	c-0.9,0.2-1.7,0.6-2.3,1.3c-2,2-2,5.2,0,7.2c2,2,5.2,2,7.2,0c2-2,2-5.2,0-7.2c-0.6-0.6-1.3-1-2-1.2c1.5-4.8,4.7-10.6,11.5-12.6
	c6-1.8,11-2,14.4-1.8c-1.8,0.5-3.6,1.6-5.2,3.2c-3.7,3.7-4.7,8.8-2.1,11.4c2.6,2.6,7.6,1.6,11.4-2.1c1.6-1.6,2.7-3.5,3.2-5.3
	c0.2,3.5,0,8.5-1.8,14.6c-2,7-8.1,10.1-13,11.6c-0.2-1-0.6-1.9-1.4-2.7c-2-2-5.2-2-7.2,0c-2,2-2,5.2,0,7.2c2,2,5.2,2,7.2,0
	c0.6-0.6,1-1.3,1.2-2c4.9,1.4,11.1,4.6,13.2,11.7C84,86.5,84.2,91.5,84,95z M107.3,108c-2.5,0-4.5,2-4.5,4.5c0,2.5,2,4.5,4.5,4.5
	c2.5,0,4.5-2,4.5-4.5C111.8,110,109.8,108,107.3,108z M107.3,116.4c-2.2,0-3.9-1.8-3.9-3.9c0-2.2,1.8-3.9,3.9-3.9
	c2.2,0,3.9,1.8,3.9,3.9C111.3,114.6,109.5,116.4,107.3,116.4z M108.4,113.1c-0.2-0.2-0.3-0.3-0.7-0.4c0.9-0.1,1.4-0.6,1.4-1.3
	c0-0.8-0.6-1.3-1.6-1.3h-2v4.7h0.6v-2h0.3c1.2,0,1.4,0.4,2.2,2h0.7C108.8,113.8,108.6,113.4,108.4,113.1z M106.9,112.3h-0.8v-1.7
	h0.9c1.1,0,1.4,0.2,1.4,0.8C108.4,112.1,108,112.3,106.9,112.3z"/>
</svg>
