<?xml version="1.0" encoding="utf-8"?>
<!-- Generator: Adobe Illustrator 22.1.0, SVG Export Plug-In . SVG Version: 6.00 Build 0)  -->
<svg version="1.1" id="Layer_1" xmlns="http://www.w3.org/2000/svg" xmlns:xlink="http://www.w3.org/1999/xlink" x="0px" y="0px"
	 viewBox="0 0 283.1 144.7" style="enable-background:new 0 0 283.1 144.7;" xml:space="preserve">
<style type="text/css">
	.st0{fill:#727977;}
	.st1{fill:#008DC4;}
</style>
<g>
	<path class="st0" d="M127,70.8c0-13.7,5.7-27.2,15.9-34.2s25.7-6.5,37.2,0.7l-3.5,6.5c-5-2.3-11.9-4.3-17.5-4
		c-13.2,0.7-19.7,17.2-19.7,31.1c0,13.2,7,28.9,20.9,29.1c7.8,0.2,13.5-2.7,20.2-5.8l3.2,6.3c-7.2,4.7-16.2,7.7-26.9,7.7
		C138.1,107.8,127,89.1,127,70.8z"/>
	<path class="st0" d="M226,31.7c19.9-0.3,28.9,18.4,29.1,39.6c0,18.7-9.4,36.2-29.4,36.9c-8.2,0-15.2-2.5-22-6.7v43.3l-12-4.3
		l0.2-95.9C191.7,44.5,201.3,32,226,31.7L226,31.7z M223,99.4c16-1,18-16.7,18-29.1c0-12-2-30.1-17.2-30.7
		c-10.4-0.7-18.7,4.2-20.4,5.8V93C207.5,95.6,215.5,99.9,223,99.4z"/>
	<path class="st0" d="M267.2,7.9c0-4.3,3.5-7.9,8-7.9c4.3,0,7.8,3.5,7.8,8c0,4.3-3.5,7.9-8,7.9C270.7,15.9,267.1,12.4,267.2,7.9
		L267.2,7.9L267.2,7.9z M269.2,35.6l12-4v74.9h-12V35.6z"/>
</g>
<path class="st0" d="M45.7,32.6C37.9,16.8,4.8,16.5,1.7,19c-3.6,2.8-1.9,38.1,12.8,44.7C24.7,68.3,36,67.5,36,67.5
	s-15.9-0.7-19.5-12.8c-1.8-6.1-2-11.1-1.8-14.6c0.5,1.8,1.6,3.7,3.2,5.3c3.7,3.7,8.8,4.7,11.4,2.1c2.6-2.6,1.6-7.6-2.1-11.4
	c-1.6-1.6-3.4-2.6-5.2-3.2c3.5-0.2,8.4,0,14.4,1.8c12.1,3.6,12.8,19.5,12.8,19.5S50.5,42.4,45.7,32.6z"/>
<path class="st1" d="M49.3,80.8c0,0-0.7,15.9-12.8,19.5c-6,1.8-11,2-14.4,1.8c1.8-0.5,3.6-1.6,5.2-3.2c3.7-3.7,4.7-8.8,2.1-11.4
	c-2.6-2.6-7.6-1.6-11.4,2.1c-1.6,1.6-2.7,3.5-3.2,5.3c-0.2-3.5,0-8.5,1.8-14.6C20.1,68.3,36,67.6,36,67.6s-11.3-0.7-21.6,3.9
	c-14.7,6.5-16.4,41.9-12.8,44.7c3.2,2.5,36.3,2.2,44.1-13.6C50.5,92.6,49.3,80.8,49.3,80.8z"/>
<path class="st1" d="M97.2,19C94,16.5,60.8,16.8,53,32.6c-4.8,9.8-3.6,21.7-3.6,21.7s0.7-15.9,12.8-19.5c6-1.8,11-2,14.4-1.8
	c-1.8,0.5-3.6,1.6-5.2,3.2c-3.7,3.7-4.7,8.8-2.1,11.4c2.6,2.6,7.6,1.6,11.4-2.1c1.6-1.6,2.7-3.5,3.2-5.3c0.2,3.5,0,8.5-1.8,14.6
	c-3.6,12.1-19.5,12.8-19.5,12.8s11.3,0.7,21.6-3.9C99,57.1,100.8,21.8,97.2,19z"/>
<path class="st0" d="M84.4,71.5c-10.3-4.6-21.6-3.9-21.6-3.9s15.9,0.7,19.5,12.8c1.8,6.1,2,11.1,1.8,14.6c-0.5-1.8-1.6-3.7-3.2-5.3
	c-3.7-3.7-8.8-4.7-11.4-2.1c-2.6,2.6-1.6,7.6,2.1,11.4c1.6,1.6,3.4,2.6,5.2,3.2c-3.5,0.2-8.4,0-14.4-1.8
	c-12.1-3.6-12.8-19.5-12.8-19.5s-1.2,11.9,3.6,21.7c7.8,15.8,40.9,16.1,44.1,13.6C100.8,113.3,99,77.9,84.4,71.5z"/>
<ellipse class="st1" cx="64.2" cy="67.2" rx="5.1" ry="5.1"/>
<ellipse class="st0" cx="49.3" cy="82.1" rx="5.1" ry="5.1"/>
<ellipse class="st0" cx="49.2" cy="52.2" rx="5.1" ry="5.1"/>
<ellipse class="st1" cx="34.3" cy="67.1" rx="5.1" ry="5.1"/>
<g>
	<path class="st0" d="M107.3,116.8c-2.5,0-4.5-2-4.5-4.5s2-4.5,4.5-4.5s4.5,2,4.5,4.5S109.8,116.8,107.3,116.8z M107.3,108.4
		c-2.2,0-3.9,1.8-3.9,3.9c0,2.2,1.8,3.9,3.9,3.9c2.2,0,3.9-1.8,3.9-3.9C111.3,110.2,109.5,108.4,107.3,108.4z M105.5,110h2
		c1,0,1.6,0.5,1.6,1.3c0,0.7-0.4,1.2-1.4,1.3c0.4,0.1,0.5,0.2,0.7,0.4c0.2,0.3,0.4,0.7,0.9,1.7h-0.7c-0.8-1.7-0.9-2-2.2-2h-0.3v2
		h-0.6V110z M106.1,112.2h0.8c1.1,0,1.5-0.2,1.5-0.9c0-0.6-0.3-0.8-1.4-0.8h-0.9V112.2z"/>
</g>
</svg>
