<?xml version="1.0" encoding="utf-8"?>
<!-- Generator: Adobe Illustrator 21.1.0, SVG Export Plug-In . SVG Version: 6.00 Build 0)  -->
<svg version="1.1" id="Layer_1" xmlns="http://www.w3.org/2000/svg" xmlns:xlink="http://www.w3.org/1999/xlink" x="0px" y="0px"
	 viewBox="0 0 24 24" style="enable-background:new 0 0 24 24;" xml:space="preserve">
<symbol id="youtube">
<title>Youtube</title>
<path id="youtube" d="M23.495 6.205a3.007 3.007 0 0 0-2.088-2.088c-1.87-.501-9.396-.501-9.396-.501s-7.507-.01-9.396.501A3.007 3.007 0 0 0 .527 6.205a31.247 31.247 0 0 0-.522 5.805 31.247 31.247 0 0 0 .522 5.783 3.007 3.007 0 0 0 2.088 2.088c1.868.502 9.396.502 9.396.502s7.506 0 9.396-.502a3.007 3.007 0 0 0 2.088-2.088 31.247 31.247 0 0 0 .5-5.783 31.247 31.247 0 0 0-.5-5.805zM9.609 15.601V8.408l6.264 3.602z"/>
</symbol>

<symbol id="facebook">
<title>Facebook</title>
<path id="facebook" class="st0" d="M22.8,0H1.4C0.7,0,0.1,0.6,0.1,1.3v21.4c0,0.7,0.6,1.3,1.3,1.3h11.5v-9.3H9.8v-3.6h3.1V8.4
	c0-3.1,1.9-4.8,4.7-4.8c1.3,0,2.5,0.1,2.8,0.1V7h-1.9c-1.5,0-1.8,0.7-1.8,1.8v2.3h3.6l-0.5,3.6h-3.1V24h6.1c0.7,0,1.3-0.6,1.3-1.3
	V1.3C24.1,0.6,23.5,0,22.8,0"/>
</symbol>

<symbol id="linkedin">
<title>LinkedIn</title>
<path id="linkedin" class="st0" d="M20.4,20.5h-3.6v-5.6c0-1.3,0-3-1.9-3s-2.1,1.4-2.1,2.9v5.7H9.2V9h3.4v1.6l0,0
	c0.5-0.9,1.6-1.9,3.4-1.9c3.6,0,4.3,2.4,4.3,5.5L20.4,20.5L20.4,20.5z M5.3,7.4c-1.1,0-2.1-0.9-2.1-2.1c0-1.1,0.9-2.1,2.1-2.1
	c1.1,0,2.1,0.9,2.1,2.1S6.5,7.4,5.3,7.4z M7.1,20.5H3.5V9h3.6V20.5z M22.2,0H1.8C0.8,0,0,0.8,0,1.7v20.5c0,1,0.8,1.7,1.8,1.7h20.5
	c1,0,1.8-0.8,1.8-1.7V1.7C24,0.8,23.2,0,22.2,0L22.2,0z"/>
</symbol>

<symbol id="twitter">
<title>Twitter</title>
<path id="twitter" class="st0" d="M24.1,6.8c-0.9,0.4-1.8,0.7-2.8,0.8c1-0.6,1.8-1.6,2.2-2.7c-1,0.6-2,1-3.1,1.2
	c-0.9-1-2.2-1.6-3.6-1.6c-2.7,0-4.9,2.2-4.9,4.9c0,0.4,0,0.8,0.1,1.1C7.8,10.3,4.2,8.3,1.8,5.4C1.3,6.1,1.1,7,1.1,7.9
	c0,1.7,0.9,3.2,2.2,4.1c-0.8,0-1.6-0.2-2.2-0.6v0.1c0,2.4,1.7,4.4,3.9,4.8c-0.4,0.1-0.8,0.2-1.3,0.2c-0.3,0-0.6,0-0.9-0.1
	c0.6,2,2.4,3.4,4.6,3.4c-1.7,1.3-3.8,2.1-6.1,2.1c-0.4,0-0.8,0-1.2-0.1C2.3,23.2,4.9,24,7.7,24c9.1,0,14-7.5,14-14
	c0-0.2,0-0.4,0-0.6C22.6,8.7,23.4,7.8,24.1,6.8L24.1,6.8z"/>
</symbol>

<symbol id="instagram">
<title>Instagram</title>
<path id="instagram" class="st0" d="M12.1,0C8.8,0,8.4,0,7.2,0.1c-1.4,0.1-2.1,0.3-3,0.6C3.5,0.9,2.8,1.3,2.1,2S1,3.3,0.7,4.1
	S0.2,5.7,0.1,7c0,1.3,0,1.7,0,5s0,3.7,0.1,4.9c0.1,1.3,0.3,2.1,0.6,2.9s0.7,1.5,1.4,2.1c0.7,0.7,1.3,1.1,2.1,1.4s1.6,0.5,2.9,0.6
	S8.8,24,12.1,24s3.7,0,4.9-0.1c1.3-0.1,2.1-0.3,2.9-0.6c0.8-0.3,1.5-0.7,2.1-1.4c0.7-0.7,1.1-1.3,1.4-2.1c0.3-0.8,0.5-1.6,0.6-2.9
	s0.1-1.7,0.1-4.9s0-3.7-0.1-4.9c-0.1-1.3-0.3-2.1-0.6-2.9c-0.3-0.8-0.7-1.5-1.4-2.1c-0.7-0.7-1.3-1.1-2.1-1.4
	c-0.8-0.3-1.6-0.5-2.9-0.6C15.8,0,15.4,0,12.1,0z M12.1,2.2c3.2,0,3.6,0,4.8,0.1s1.8,0.2,2.2,0.4c0.6,0.2,1,0.5,1.4,0.9
	s0.7,0.8,0.9,1.4c0.2,0.4,0.4,1.1,0.4,2.2c0.1,1.3,0.1,1.6,0.1,4.8s0,3.6-0.1,4.9c-0.1,1.2-0.3,1.8-0.4,2.2c-0.2,0.6-0.5,1-0.9,1.4
	s-0.8,0.7-1.4,0.9c-0.4,0.2-1.1,0.4-2.2,0.4c-1.3,0.1-1.6,0.1-4.9,0.1c-3.2,0-3.6,0-4.9-0.1c-1.2-0.1-1.8-0.3-2.2-0.4
	c-0.6-0.2-1-0.5-1.4-0.9s-0.7-0.8-0.9-1.4c-0.2-0.4-0.4-1.1-0.4-2.2c0-1.3-0.1-1.6-0.1-4.8s0-3.6,0.1-4.9C2.2,6,2.5,5.4,2.6,5
	c0.2-0.6,0.5-1,0.9-1.4s0.8-0.7,1.4-0.9C5.3,2.5,6,2.3,7.1,2.3C8.5,2.1,8.8,2.1,12.1,2.2C12.1,2.1,12.1,2.2,12.1,2.2z M12.1,5.8
	c-3.4,0-6.2,2.8-6.2,6.2s2.8,6.2,6.2,6.2s6.2-2.8,6.2-6.2S15.5,5.8,12.1,5.8z M12.1,16c-2.2,0-4-1.8-4-4s1.8-4,4-4s4,1.8,4,4
	S14.2,16,12.1,16z M19.9,5.6c0,0.8-0.6,1.4-1.4,1.4s-1.4-0.6-1.4-1.4s0.6-1.4,1.4-1.4C19.2,4.2,19.9,4.8,19.9,5.6z"/>
</symbol>

<symbol id="pinterest">
<title>Pinterest</title>	
<path id="pinterest" d="M12,0C5.4,0,0,5.4,0,12c0,5.1,3.2,9.4,7.6,11.2c-0.1-0.9-0.2-2.4,0-3.4c0.2-0.9,1.4-6,1.4-6S8.6,13.1,8.6,12
	c0-1.7,1-2.9,2.2-2.9c1,0,1.5,0.8,1.5,1.7c0,1-0.7,2.6-1,4C11,16,11.9,17,13.1,17c2.1,0,3.8-2.2,3.8-5.5c0-2.9-2.1-4.9-5-4.9
	c-3.4,0-5.4,2.6-5.4,5.2c0,1,0.4,2.1,0.9,2.7c0.1,0.1,0.1,0.2,0.1,0.3c-0.1,0.4-0.3,1.2-0.3,1.4c-0.1,0.2-0.2,0.3-0.4,0.2
	c-1.5-0.7-2.4-2.9-2.4-4.6c0-3.8,2.7-7.3,7.9-7.3c4.2,0,7.4,3,7.4,6.9c0,4.1-2.6,7.5-6.2,7.5c-1.2,0-2.4-0.6-2.8-1.4L10,20.3
	c-0.3,1-1,2.4-1.5,3.1c1.1,0.3,2.3,0.5,3.6,0.5c6.6,0,12-5.4,12-12C24,5.4,18.6,0,12,0L12,0z"/>
</symbol>
</svg>
